<?xml version="1.0" encoding="UTF-8"?>
<svg xmlns="http://www.w3.org/2000/svg" width="20" height="20" viewBox="0 0 20 20" fill="none" version="1.1" id="svg6">
  <g clip-path="url(#clip0_23_2558)" id="g4">
    <path fill="#475467" d="m 9.3339844,0.83398438 c -0.9334191,0 -1.5161241,-0.0437362 -2.1347657,0.27148432 C 6.728925,1.3450996 6.3451084,1.7288928 6.1054687,2.1992188 5.7902684,2.8178548 5.8339844,3.4005653 5.8339844,4.3339844 v 1.5 h -1.5 c -0.9334191,0 -1.5161241,-0.043736 -2.1347656,0.2714843 C 1.728925,6.3450996 1.3451084,6.7288928 1.1054687,7.1992187 0.79026838,7.8178548 0.83398438,8.4005653 0.83398438,9.3339844 v 6.3320316 c 0,0.933399 -0.043731,1.516135 0.27148432,2.134765 0.2396276,0.470287 0.6234224,0.854087 1.0937501,1.09375 0.6186084,0.3151 1.2013465,0.271485 2.1347656,0.271485 h 6.3320316 c 0.933399,0 1.516162,0.04363 2.134765,-0.271485 0.470309,-0.239653 0.854097,-0.623441 1.09375,-1.09375 0.315316,-0.618658 0.271485,-1.201366 0.271485,-2.134765 v -1.5 h 1.5 c 0.933399,0 1.516162,0.04363 2.134765,-0.271485 0.470309,-0.239653 0.854097,-0.623441 1.09375,-1.09375 0.315316,-0.618658 0.271485,-1.201366 0.271485,-2.134765 V 4.3339844 c 0,-0.9334191 0.04382,-1.5161021 -0.271485,-2.1347656 C 18.654866,1.7288714 18.271056,1.3450899 17.800781,1.1054687 17.182145,0.79023324 16.599415,0.83398438 15.666016,0.83398438 Z m 0,1.66601562 h 6.3320316 c 0.933399,0 1.284543,0.043713 1.378906,0.091797 0.156925,0.079959 0.2853,0.2064092 0.365234,0.3632812 0.0481,0.094376 0.08984,0.4454872 0.08984,1.3789063 v 6.3320316 c 0,0.933399 -0.04176,1.284565 -0.08984,1.378906 -0.07973,0.156471 -0.20892,0.283296 -0.365234,0.363281 -0.0944,0.04809 -0.445507,0.0918 -1.378906,0.0918 h -1.5 V 9.3339844 c 0,-0.9334191 0.04382,-1.5161021 -0.271485,-2.1347657 C 13.654866,6.7288714 13.271056,6.3450899 12.800781,6.1054687 12.182145,5.7902332 11.599415,5.8339844 10.666016,5.8339844 H 7.5 v -1.5 C 7.5,3.4005653 7.5436976,3.0494814 7.5917969,2.9550781 7.6717369,2.7981847 7.7981725,2.6717457 7.9550781,2.5917969 8.0494759,2.5436978 8.4005653,2.5 9.3339844,2.5 Z m -5,5 h 2.3320312 4.0000004 c 0.933399,0 1.284543,0.043713 1.378906,0.091797 0.156925,0.079959 0.2853,0.2064092 0.365234,0.3632812 0.0481,0.094376 0.08984,0.4454872 0.08984,1.3789063 v 3.9999996 2.332032 c 0,0.933399 -0.04176,1.284565 -0.08984,1.378906 -0.07973,0.156471 -0.20892,0.283296 -0.365234,0.363281 -0.0944,0.04809 -0.445507,0.0918 -1.378906,0.0918 H 4.3339844 c -0.9334191,0 -1.2844755,-0.0437 -1.3789063,-0.0918 C 2.7987864,17.328227 2.6715341,17.201412 2.5917969,17.044922 2.5437126,16.950553 2.5,16.599415 2.5,15.666016 V 9.3339844 C 2.5,8.4005653 2.5436976,8.0494814 2.5917969,7.9550781 2.6717369,7.7981847 2.7981725,7.6717457 2.9550781,7.5917969 3.0494759,7.5436978 3.4005653,7.5 4.3339844,7.5 Z" id="path2" />
  </g>
</svg>
