<?xml version="1.0" encoding="UTF-8"?>
<svg xmlns="http://www.w3.org/2000/svg" width="14" height="14" viewBox="0 0 14 14" fill="none" version="1.1" id="svg4">
  <path fill="#ffffff" d="M 6.6660156,0 A 0.83333498,0.83333498 0 0 0 5.8339844,0.83398438 V 5.8339844 H 0.83398438 A 0.83333498,0.83333498 0 0 0 0,6.6660156 0.83333498,0.83333498 0 0 0 0.83398438,7.5 H 5.8339844 v 5 A 0.83333498,0.83333498 0 0 0 6.6660156,13.333984 0.83333498,0.83333498 0 0 0 7.5,12.5 v -5 h 5 A 0.83333498,0.83333498 0 0 0 13.333984,6.6660156 0.83333498,0.83333498 0 0 0 12.5,5.8339844 h -5 V 0.83398438 A 0.83333498,0.83333498 0 0 0 6.6660156,0 Z" id="path2" />
</svg>
