<svg viewBox="160 33 46 46" fill="none" xmlns="http://www.w3.org/2000/svg">
    <path d="M185.8 67.7873C182.3 66.4873 178.7 66.2873 175.4 67.1873C173.1 67.7873 170.9 68.9873 168.9 70.4873L167.5 71.6873L167.1 72.0873L168 72.8873C168.1 72.8873 168.1 72.9873 168.2 73.0873C168.4 73.2873 168.6 73.3873 168.9 73.5873L169.5 73.9873L170.1 73.4873C170.2 73.3873 170.4 73.1873 170.6 73.0873C172.4 71.5873 174.4 70.5873 176.5 70.0873C179.2 69.3873 182.1 69.4873 185 70.5873C187.4 71.4873 192.3 72.5873 198.2 70.0873L198.4 69.9873L198.7 69.6873C198.7 69.5873 198.8 69.5873 198.9 69.4873C199.4 68.8873 199.9 68.2873 200.3 67.5873L202.3 64.4873L199.1 66.2873C194.4 68.8873 190.1 69.3873 185.8 67.7873Z"
          fill="#099250"/>
    <path d="M172.1 56.9876C174.8 56.2876 177.7 56.3876 180.6 57.4876C183.8 58.6876 192 60.3876 201.2 52.0876L202.7 50.5876L202.8 50.4876L203.2 50.0876L203 49.5876C202.9 49.1876 202.7 48.6876 202.5 48.1876L202 46.7876L201 47.7876C200.9 47.9876 200.7 48.0876 200.5 48.2876C196.1 52.7876 189.3 57.3876 181.5 54.5876C178 53.2876 174.4 53.0876 171.1 53.9876C167.9 54.8876 165.1 56.5876 162.5 58.9876V58.8876L161 60.4876C161 60.5876 160.9 60.5876 160.8 60.6876L160.5 60.9876L160.6 61.3876C160.7 61.8876 160.9 62.3876 161 62.8876L161.6 64.4876L162.6 63.1876C162.7 62.9876 162.9 62.8876 163 62.6876C165.1 60.7876 168 58.0876 172.1 56.9876Z"
          fill="#099250"/>
    <path d="M162.4 55.1874C164.7 52.7874 167.3 51.2874 170.1 50.4874C172.8 49.7874 175.7 49.8874 178.6 50.9874C187.6 54.2874 195.4 48.8874 198.8 45.9874L200.1 44.6874L200.6 44.2874L200.2 43.6874C199.9 43.3874 199.7 42.9874 199.4 42.5874L198.8 41.7874L198.1 42.4874C198 42.5874 197.8 42.7874 197.7 42.8874C193.5 46.8874 187 50.9874 179.6 48.1874C176.1 46.8874 172.5 46.6874 169.2 47.5874C167.1 48.1874 165.1 49.1874 163.1 50.4874L161 52.1874C160.8 52.3874 160.7 52.4874 160.5 52.6874L160.3 52.8874V53.1874C160.2 53.8874 160.2 54.5874 160.1 55.1874L160 57.6874L161.7 55.8874C161.9 55.6874 162.1 55.3874 162.4 55.1874Z"
          fill="#099250"/>
    <path d="M188.7 74.5875L188.5 75.1875L188.7 74.5875C188.4 74.4875 188.2 74.3875 187.9 74.2875C184.4 72.9875 180.8 72.7875 177.5 73.6875C176.8 73.8875 176.1 74.0875 175.4 74.3875L173 75.4875L172.4 75.7875L174.4 76.4875C175 76.6875 175.6 76.8875 176.2 77.0875L176.5 77.1875L176.8 77.0875C177.1 76.9875 177.4 76.7875 177.7 76.7875C177.9 76.7875 178.1 76.6875 178.3 76.5875C180.7 75.9875 183.3 75.9875 186.1 76.8875C186.4 76.9875 186.6 77.0875 186.9 77.1875L187.4 77.3875L187.7 77.2875C188.4 77.0875 189.2 76.8875 189.8 76.5875L192.6 75.5875L189.7 74.8875C189.4 74.7875 189 74.6875 188.7 74.5875Z"
          fill="#099250"/>
    <path d="M204 53.8875L202.5 55.3875C202.3 55.5875 202.1 55.7875 201.9 55.9875C197.8 59.8875 191.2 64.0874 183.8 61.2874C180.3 59.9874 176.7 59.7875 173.4 60.6875C170.3 61.5875 167.5 63.1875 165 65.5875L163.7 66.9875L163.3 67.4875L163.7 68.0875C164 68.4875 164.2 68.7875 164.4 69.1875L165 70.0875L165.7 69.1875C165.8 69.0875 166 68.8874 166.1 68.7874C168.5 66.1874 171.1 64.5874 174.1 63.7874C176.8 63.0874 179.7 63.1874 182.6 64.2874C185.1 65.1874 187.7 65.4875 190.3 65.1875C194.9 64.6875 199.5 62.0875 202.9 59.1875C203.1 58.9875 203.3 58.8875 203.5 58.6875L203.8 58.3875V58.0875C203.8 57.4875 203.9 56.7875 203.9 56.1875L204 53.8875Z"
          fill="#099250"/>
    <path d="M166 44.6877L165.7 44.0876L166 44.6877C166.6 44.3877 167.3 44.1876 167.9 43.9876C170.6 43.2876 173.5 43.3876 176.4 44.4876C178.3 45.1876 180.2 45.4876 182.3 45.4876C186.5 45.4876 190.7 43.9876 194.6 41.0876L196.1 39.8876L196.6 39.4876L195.7 38.7876C195.4 38.4876 195 38.1876 194.6 37.9876L194 37.5876L193.5 37.9876C193.3 38.0876 193.2 38.2876 193 38.3876C187.7 42.3876 182.4 43.4876 177.4 41.5876C173.8 40.2876 170.2 39.9876 166.6 41.0876C166.3 41.1876 166 41.2876 165.6 41.3876L165.4 41.4876L165.1 41.7876C165.1 41.8876 165 41.8876 164.9 41.9876C164.5 42.5876 164 43.0877 163.6 43.6877L161.7 46.5876L164.8 44.9876C165.3 44.9876 165.7 44.7877 166 44.6877Z"
          fill="#099250"/>
    <path d="M174.2 37.8875L174.5 37.9875C175.8 38.4875 177.8 38.9875 180.3 38.9875C182.9 38.9875 185.4 38.3875 187.9 37.3875L191 35.8875L188.9 35.1875C188.3 34.9875 187.7 34.7875 187 34.6875H186.7L186.4 34.7875C186.1 34.8875 185.8 35.0875 185.5 35.1875C182.5 36.2875 179.5 36.4875 176.6 35.6875C176.3 35.5875 176 35.4875 175.7 35.3875L175.4 35.2875L175.1 35.3875C174.5 35.5875 173.9 35.7875 173.3 36.0875L171 37.0875L173.4 37.7875C173.6 37.6875 173.9 37.7875 174.2 37.8875Z"
          fill="#099250"/>
</svg>
